# xmcd
#
# Track frame offsets:
#	150
#	14478
#	26033
#	38215
#	52738
#	67405
#	84975
#	97935
#	111958
#	128918
#	143585
#	160818
#	172675
#	175423
#
# Disc length: 2543 seconds
#
# Revision: 1
# Processed by: cddbd v1.5.2PL0 Copyright (c) Steve Scherf et al.
# Submitted via: audiograbber 1.83.01
#
DISCID=b109ed0e
DTITLE=Zitronentaler - Mittn´drin 
DYEAR=1900
DGENRE=
TTITLE0=So a Nacht
TTITLE1=I Träum von dir
TTITLE2=Zitrumental
TTITLE3=Mitt´ndrin
TTITLE4=Space Cowboy
TTITLE5=Du warst da
TTITLE6=Mit dir, durch di
TTITLE7=So resch, so fesch
TTITLE8=In der Hüttn
TTITLE9=Drunt in der grünen Au
TTITLE10=Liebe fragt net nach Zeit
TTITLE11=Es draht si oiß ums Geld
TTITLE12=Telebanking
TTITLE13=A Gfui so riesengroß
EXTD=
EXTT0=
EXTT1=
EXTT2=
EXTT3=
EXTT4=
EXTT5=
EXTT6=
EXTT7=
EXTT8=
EXTT9=
EXTT10=
EXTT11=
EXTT12=
EXTT13=
PLAYORDER=
